<?xml version="1.0" encoding="UTF-8"?>
<svg xmlns="http://www.w3.org/2000/svg" width="166" height="44" viewBox="0 0 166 44" fill="none">
  <path d="M32.2812 36V8H37.551V32.28L37.2716 36H32.2812ZM43.5793 36.48C41.9026 36.48 40.4787 36.0533 39.3076 35.2C38.1632 34.3467 37.2849 33.1333 36.6727 31.56C36.0606 29.9867 35.7545 28.1333 35.7545 26C35.7545 23.84 36.0606 21.9867 36.6727 20.44C37.2849 18.8667 38.1632 17.6533 39.3076 16.8C40.4787 15.9467 41.9026 15.52 43.5793 15.52C45.4158 15.52 46.9994 15.9467 48.3301 16.8C49.6875 17.6533 50.7388 18.8667 51.484 20.44C52.2292 21.9867 52.6019 23.84 52.6019 26C52.6019 28.1333 52.2292 29.9867 51.484 31.56C50.7388 33.1333 49.6875 34.3467 48.3301 35.2C46.9994 36.0533 45.4158 36.48 43.5793 36.48ZM42.222 31.64C43.1801 31.64 44.0185 31.4 44.7371 30.92C45.4823 30.44 46.0679 29.7733 46.4937 28.92C46.9195 28.0667 47.1325 27.0933 47.1325 26C47.1325 24.9067 46.9195 23.9333 46.4937 23.08C46.0945 22.2267 45.5223 21.5733 44.777 21.12C44.0584 20.64 43.22 20.4 42.2619 20.4C41.357 20.4 40.5452 20.64 39.8266 21.12C39.108 21.6 38.5491 22.2667 38.1499 23.12C37.7506 23.9467 37.551 24.9067 37.551 26C37.551 27.0933 37.7506 28.0667 38.1499 28.92C38.5491 29.7733 39.0947 30.44 39.7867 30.92C40.5053 31.4 41.3171 31.64 42.222 31.64Z" fill="black"></path>
  <path d="M65.4451 36.48C63.4223 36.48 61.6125 36.04 60.0156 35.16C58.4453 34.2533 57.2077 33.0133 56.3028 31.44C55.4245 29.8667 54.9854 28.0533 54.9854 26C54.9854 23.9467 55.4245 22.1333 56.3028 20.56C57.1811 18.9867 58.4054 17.76 59.9757 16.88C61.546 15.9733 63.3425 15.52 65.3652 15.52C67.4146 15.52 69.2244 15.9733 70.7947 16.88C72.365 17.76 73.5893 18.9867 74.4676 20.56C75.3459 22.1333 75.785 23.9467 75.785 26C75.785 28.0533 75.3459 29.8667 74.4676 31.44C73.5893 33.0133 72.365 34.2533 70.7947 35.16C69.251 36.04 67.4678 36.48 65.4451 36.48ZM65.4451 31.6C66.4298 31.6 67.2948 31.36 68.0401 30.88C68.7853 30.4 69.3575 29.7467 69.7567 28.92C70.1826 28.0667 70.3955 27.0933 70.3955 26C70.3955 24.9067 70.1826 23.9467 69.7567 23.12C69.3309 22.2667 68.7321 21.6 67.9602 21.12C67.215 20.64 66.35 20.4 65.3652 20.4C64.4071 20.4 63.5421 20.64 62.7703 21.12C62.0251 21.6 61.4395 22.2667 61.0137 23.12C60.5878 23.9467 60.3749 24.9067 60.3749 26C60.3749 27.0933 60.5878 28.0667 61.0137 28.92C61.4395 29.7467 62.0384 30.4 62.8102 30.88C63.582 31.36 64.4603 31.6 65.4451 31.6Z" fill="black"></path>
  <path d="M88.8818 36.48C86.8059 36.48 84.9561 36.04 83.3326 35.16C81.7091 34.2533 80.4449 33.0133 79.54 31.44C78.635 29.84 78.1826 28.0267 78.1826 26C78.1826 23.9467 78.635 22.1333 79.54 20.56C80.4449 18.9867 81.6958 17.76 83.2927 16.88C84.8896 15.9733 86.726 15.52 88.802 15.52C90.7981 15.52 92.6213 16.0133 94.2714 17C95.9215 17.9867 97.1192 19.4133 97.8644 21.28L92.914 23.04C92.5414 22.2667 91.9559 21.6533 91.1574 21.2C90.3856 20.72 89.5206 20.48 88.5625 20.48C87.5777 20.48 86.7127 20.72 85.9675 21.2C85.2223 21.6533 84.6367 22.2933 84.2109 23.12C83.7851 23.9467 83.5721 24.9067 83.5721 26C83.5721 27.0933 83.7851 28.0533 84.2109 28.88C84.6367 29.68 85.2356 30.32 86.0074 30.8C86.7793 31.28 87.6576 31.52 88.6423 31.52C89.6005 31.52 90.4654 31.2667 91.2373 30.76C92.0357 30.2533 92.6213 29.5867 92.9939 28.76L97.9842 30.52C97.2124 32.4133 96.0014 33.88 94.3512 34.92C92.7277 35.96 90.9046 36.48 88.8818 36.48Z" fill="black"></path>
  <path d="M101.254 44V16H106.204L106.524 19.68V44H101.254ZM112.552 36.48C110.875 36.48 109.451 36.0533 108.28 35.2C107.136 34.3467 106.257 33.1333 105.645 31.56C105.033 29.9867 104.727 28.1333 104.727 26C104.727 23.84 105.033 21.9867 105.645 20.44C106.257 18.8667 107.136 17.6533 108.28 16.8C109.451 15.9467 110.875 15.52 112.552 15.52C114.388 15.52 115.972 15.9467 117.303 16.8C118.66 17.6533 119.711 18.8667 120.457 20.44C121.202 21.9867 121.574 23.84 121.574 26C121.574 28.1333 121.202 29.9867 120.457 31.56C119.711 33.1333 118.66 34.3467 117.303 35.2C115.972 36.0533 114.388 36.48 112.552 36.48ZM111.195 31.64C112.153 31.64 112.991 31.4 113.71 30.92C114.455 30.44 115.04 29.7733 115.466 28.92C115.892 28.0667 116.105 27.0933 116.105 26C116.105 24.9067 115.892 23.9333 115.466 23.08C115.067 22.2267 114.495 21.5733 113.75 21.12C113.031 20.64 112.193 20.4 111.234 20.4C110.33 20.4 109.518 20.64 108.799 21.12C108.081 21.6 107.522 22.2667 107.122 23.12C106.723 23.9467 106.524 24.9067 106.524 26C106.524 27.0933 106.723 28.0667 107.122 28.92C107.522 29.7733 108.067 30.44 108.759 30.92C109.478 31.4 110.29 31.64 111.195 31.64Z" fill="black"></path>
  <path d="M137.088 36L136.928 31.96V25.88C136.928 24.68 136.795 23.6533 136.529 22.8C136.289 21.9467 135.89 21.2933 135.331 20.84C134.799 20.36 134.067 20.12 133.135 20.12C132.284 20.12 131.512 20.3067 130.82 20.68C130.128 21.0533 129.542 21.6267 129.063 22.4L124.432 20.8C124.805 19.9467 125.351 19.12 126.069 18.32C126.788 17.4933 127.719 16.8267 128.864 16.32C130.035 15.7867 131.459 15.52 133.135 15.52C135.158 15.52 136.835 15.9067 138.166 16.68C139.523 17.4533 140.521 18.5467 141.16 19.96C141.825 21.3467 142.145 23 142.118 24.92L141.998 36H137.088ZM131.499 36.48C129.103 36.48 127.24 35.9467 125.909 34.88C124.605 33.8133 123.953 32.3067 123.953 30.36C123.953 28.2267 124.659 26.6267 126.069 25.56C127.506 24.4667 129.516 23.92 132.097 23.92H137.168V27.84H133.934C132.204 27.84 131.006 28.0533 130.341 28.48C129.675 28.88 129.343 29.4533 129.343 30.2C129.343 30.7867 129.609 31.2533 130.141 31.6C130.674 31.92 131.419 32.08 132.377 32.08C133.255 32.08 134.027 31.88 134.692 31.48C135.384 31.0533 135.93 30.52 136.329 29.88C136.728 29.2133 136.928 28.5333 136.928 27.84H138.206C138.206 30.56 137.687 32.68 136.649 34.2C135.637 35.72 133.921 36.48 131.499 36.48Z" fill="black"></path>
  <path d="M151.348 30.92L148.194 27.28L158.415 16H164.682L151.348 30.92ZM146.318 36V8H151.588V36H146.318ZM159.093 36L152.466 26.32L155.899 22.68L165.281 36H159.093Z" fill="black"></path>
  <path d="M10.7924 13.6683V10.1501C10.7924 4.5443 5.96051 0 0 0V1.62061C0 7.66439 4.66396 12.6841 10.7924 13.6683Z" fill="#24C66D"></path>
  <path d="M26 27.7745C26 24.3992 24.5452 21.3414 22.1926 19.1288C19.84 16.9161 16.5887 15.548 12.9998 15.548H12.9671C10.1733 15.5416 7.56008 14.8054 5.33029 13.5307C3.10124 12.2577 1.25561 10.4449 0.00148901 8.28757V15.5483H0V27.7748C0 34.5265 5.82092 40 13.0002 40C16.5891 40 19.8403 38.6318 22.193 36.4192C24.5452 34.2065 26 31.1498 26 27.7745ZM17.5301 27.7745C17.5301 30.1233 15.4973 32.0338 13.0002 32.0338C10.5027 32.0338 8.47024 30.1233 8.47024 27.7745V23.0951C9.9291 23.3688 11.4278 23.5113 12.947 23.5138H13.0002C15.4973 23.5141 17.5301 25.426 17.5301 27.7745Z" fill="#24C66D"></path>
</svg>
